<svg width="32" height="20" viewBox="0 0 32 20" fill="none" xmlns="http://www.w3.org/2000/svg">
<title>Delivery truck clip</title>
  <g clipPath="url(#deliveryTruckClip)">
    <path
      d="M31.0742 7.86926L26.47 3.26502C26.3428 3.13781 26.1731 3.06714 25.9965 3.06714H21.583V0.671378C21.583 0.300353 21.2827 0 20.9117 0H0.671378C0.300353 0 0 0.300353 0 0.671378V11.0318C0 11.4028 0.300353 11.7032 0.671378 11.7032H2.68551V15.636C2.68551 16.0071 2.98587 16.3074 3.35689 16.3074H5.83746C5.96113 18.364 7.67138 20 9.75972 20C11.8481 20 13.5548 18.364 13.682 16.3074H21.311C21.4346 18.364 23.1449 20 25.2332 20C27.3216 20 29.0283 18.364 29.1555 16.3074H30.6078C30.9788 16.3074 31.2792 16.0071 31.2792 15.636V8.34629C31.2721 8.16608 31.2014 7.99647 31.0742 7.86926ZM29.9293 9.01767H26.5124V5.20848L29.9293 8.62544V9.01767ZM1.34276 1.34276H20.2403V10.3604H1.34276V1.34276ZM9.75618 18.6572C8.32862 18.6572 7.16608 17.4947 7.16608 16.0671C7.16608 14.6396 8.32862 13.477 9.75618 13.477C11.1837 13.477 12.3463 14.6396 12.3463 16.0671C12.3463 17.4947 11.1837 18.6572 9.75618 18.6572ZM25.2297 18.6572C23.8021 18.6572 22.6396 17.4947 22.6396 16.0671C22.6396 14.6396 23.8021 13.477 25.2297 13.477C26.6572 13.477 27.8198 14.6396 27.8198 16.0671C27.8198 17.4947 26.6572 18.6572 25.2297 18.6572ZM29.0035 14.9647C28.5265 13.3322 27.0177 12.1343 25.2297 12.1343C23.4452 12.1343 21.9364 13.3322 21.4558 14.9647H13.53C13.053 13.3322 11.5442 12.1343 9.75618 12.1343C7.9682 12.1343 6.4629 13.3322 5.98233 14.9647H4.02827V11.7032H20.9117C21.2827 11.7032 21.583 11.4028 21.583 11.0318V4.41343H25.1696V9.68905C25.1696 10.0601 25.47 10.3604 25.841 10.3604H29.9293V14.9647H29.0035Z"
      fill="#FB4341" />
  </g>
  <defs>
    <clipPath id="deliveryTruckClip">
      <rect width="31.2792" height="20" fill="white" />
    </clipPath>
  </defs>
</svg>
