<svg width="97" height="48" viewBox="0 0 97 48" fill="none" xmlns="http://www.w3.org/2000/svg">
<title>Petco pet logo light</title>
  <g clip-path="url(#petco-pet-logo-light)">
    <path
      d="M48.0537 33.7559C49.4781 33.7559 50.6338 32.6002 50.6338 31.1758C50.6338 29.7783 49.4781 28.6226 48.0537 28.6226C46.6293 28.6226 45.5005 29.7783 45.5005 31.1758C45.5274 32.6271 46.6562 33.7559 48.0537 33.7559Z"
      fill="white" />
    <path
      d="M61.7603 33.7559C63.1579 33.7559 64.3135 32.6002 64.3135 31.1758C64.3135 29.7783 63.1579 28.6226 61.7603 28.6226C60.3359 28.6226 59.1803 29.7783 59.2072 31.2027C59.1803 32.6271 60.3359 33.7828 61.7603 33.7559Z"
      fill="white" />
    <path
      d="M17.4961 31.1758C17.4961 29.7783 16.3404 28.6226 14.9429 28.6226C13.5185 28.6226 12.3628 29.7783 12.3628 31.1758C12.3628 32.6002 13.5185 33.7559 14.9429 33.7559C16.3404 33.7559 17.4961 32.6002 17.4961 31.1758Z"
      fill="white" />
    <path
      d="M28.6227 28.6226C27.1983 28.6226 26.0426 29.7783 26.0426 31.1758C26.0426 32.6002 27.1983 33.7559 28.6227 33.7559C30.0471 33.7559 31.1759 32.6002 31.1759 31.1758C31.1759 29.7783 30.0471 28.6226 28.6227 28.6226Z"
      fill="white" />
    <path
      d="M29.5633 39.131C29.5633 38.5666 29.0795 38.1097 28.5151 38.1097C27.9507 38.1097 27.4669 38.5666 27.4669 39.131H27.4401C27.4401 39.7492 27.1982 40.3135 26.7682 40.7436C26.3382 41.1736 25.7469 41.4155 25.1556 41.4155C23.8925 41.4155 22.8981 40.3942 22.8712 39.1041V38.1904C22.8712 38.1366 22.8443 38.0829 22.8443 38.0022C24.1612 37.5722 25.1556 36.3091 25.1556 34.8309C25.1556 34.8309 23.7312 34.1321 21.823 34.1321C19.8611 34.1321 18.4367 34.8309 18.4367 34.8309C18.4367 36.3091 19.4311 37.5722 20.7749 38.0022C20.7749 38.056 20.748 38.1097 20.748 38.1904V39.1041C20.748 40.3673 19.7267 41.4155 18.4367 41.4155C17.8186 41.4155 17.2542 41.1736 16.8242 40.7436C16.3942 40.3135 16.1523 39.7223 16.1523 39.131C16.1523 38.5666 15.6685 38.1097 15.1041 38.1097C14.5397 38.1097 14.056 38.5666 14.056 39.131C14.056 39.131 14.056 39.131 14.056 39.1579C14.056 40.3404 14.5129 41.4155 15.346 42.2486C16.1523 43.0549 17.2542 43.5386 18.4367 43.5386C19.7805 43.5386 20.9899 42.9205 21.7962 41.9798C22.6024 42.9205 23.785 43.5386 25.1288 43.5386C26.3113 43.5386 27.4132 43.0817 28.2463 42.2486C29.0795 41.4155 29.5364 40.3135 29.5364 39.1579C29.5633 39.1579 29.5633 39.1579 29.5633 39.131C29.5633 39.1579 29.5633 39.1579 29.5633 39.131Z"
      fill="white" />
    <path
      d="M56.5464 48C56.4927 47.5968 56.4389 47.1937 56.4389 46.7906V44.1567C59.3146 43.458 61.4378 40.9048 61.4378 37.841C61.4378 37.841 58.7502 36.4972 54.907 36.4972C51.0906 36.4972 48.4031 37.841 48.4031 37.841C48.4031 40.9048 50.5531 43.4848 53.4288 44.1567V46.7906C53.4288 47.1937 53.402 47.5968 53.3213 48H56.5464Z"
      fill="white" />
    <path
      d="M7.47144 47.9997H12.1747C11.4759 46.9784 10.6428 46.0378 9.75588 45.0434C8.8421 44.0221 7.92833 42.9471 7.06831 41.7646L11.1803 40.9314C11.7447 40.8239 12.1209 40.2595 12.0134 39.6683C11.9059 39.1039 11.3415 38.7276 10.7503 38.8351L5.83203 39.8295C5.29451 38.862 4.81075 37.8138 4.46137 36.6044L10.804 37.5988C10.8578 37.5988 10.9115 37.5988 10.9653 37.5988C11.4759 37.5988 11.9328 37.2226 12.0134 36.7119C12.0941 36.1207 11.7178 35.5832 11.1265 35.5025L3.95073 34.4006C3.7626 33.3256 3.65509 32.1699 3.65509 30.9337C3.65509 24.9135 9.43337 16.8777 11.1803 16.0714C12.766 16.2864 15.4266 20.3446 16.8511 23.9997L17.4692 25.5585L17.523 25.5316V25.5585L19.1086 25.0748C20.6674 24.591 22.3606 24.591 23.8925 25.0748L25.505 25.5585L26.1232 23.9997C27.5745 20.3446 30.2352 16.2864 31.7939 16.0714C33.5677 16.9045 39.346 24.9135 39.346 30.9068C39.346 32.0356 39.2385 33.1643 39.0235 34.2931L32.4658 35.5294C31.9014 35.6369 31.5252 36.2013 31.6327 36.7657C31.7133 37.2763 32.1702 37.6257 32.6808 37.6257C32.7346 37.6257 32.8152 37.6257 32.869 37.5988L38.4591 36.5507C38.4591 36.5507 38.3785 36.7926 38.3516 36.9269L37.0616 39.6683L32.8958 38.862C32.3315 38.7545 31.7671 39.1307 31.6596 39.6951C31.5521 40.2595 31.9283 40.8239 32.4927 40.9314L36.1209 41.6302C35.5565 43.0277 34.9115 45.1778 34.9115 47.6503C34.9115 47.7847 34.9115 47.8922 34.9115 48.0266H38.5397C38.5129 47.8922 38.486 47.731 38.486 47.5966C38.5129 44.3446 39.991 41.7914 39.991 41.7646L41.5767 38.4051L41.6573 38.2438C42.5173 35.8788 42.9474 33.4062 42.9474 30.9068C42.9474 26.0423 40.0985 20.9628 38.8891 19.0008C37.6797 17.012 34.5621 12.4432 31.8477 12.4432H31.4446C28.4345 12.4432 26.8757 14.8351 25.6932 16.9314C25.1288 17.7377 24.645 18.5708 24.2419 19.3502C23.4625 20.4521 22.6831 21.0971 21.4737 21.0971C19.4849 21.0971 17.0392 17.2539 17.0392 12.7388C17.0392 10.9919 17.4154 8.49244 19.2161 6.53052C20.9362 4.64922 23.5969 3.70857 27.1176 3.70857C37.7335 3.68169 42.1948 10.8306 42.383 11.1263L43.2967 12.6582L44.8555 11.825C44.8824 11.7982 48.6988 9.72873 54.907 9.72873C61.1422 9.72873 64.9585 11.7713 64.9854 11.7982L66.5442 12.6582L67.458 11.1263C67.5117 11.0456 71.9731 3.73544 82.6965 3.70857C86.2172 3.70857 88.8779 4.56859 90.6248 6.44989C92.4255 8.38494 92.8018 10.9113 92.8018 12.6582C92.8018 17.1733 90.3829 21.124 88.3941 21.124C86.5666 21.124 85.6797 19.6459 84.3897 17.4421C83.1534 15.3189 81.5946 12.6582 78.3426 12.6851C73.505 12.6851 69.4737 21.5809 69.2049 22.2259C68.1568 24.4297 66.9205 27.7086 66.9205 30.9337C66.9205 33.46 67.3774 35.9057 68.2374 38.2707L69.7962 41.6302C69.7962 41.6302 71.4087 44.264 71.4087 47.6235C71.3818 47.7847 71.3818 47.946 71.355 48.1072H75.1176C75.1176 47.9728 75.1176 47.8385 75.1176 47.7041H75.0907C75.0907 43.7265 73.3975 40.6089 73.075 40.0176L71.6237 36.9807C70.9249 35.0725 70.5756 33.03 70.5756 30.9605C70.5756 28.9448 71.2475 26.4723 72.5106 23.7847L72.5375 23.731C74.2575 19.7534 77.2139 16.3401 78.3964 16.3401C79.4177 16.3401 80.0896 17.2808 81.2721 19.3234C82.6159 21.6078 84.4434 24.7254 88.421 24.7254C93.2318 24.7254 96.4569 18.4902 96.4569 12.6851C96.4569 9.29871 95.3281 6.23488 93.3124 4.03108C90.813 1.28976 87.1579 -0.000277631 82.6428 -0.000277631C72.7525 0.0265981 67.2967 5.26736 65.2273 7.84743C63.3191 7.09491 59.7447 5.993 54.8533 5.993C49.9888 5.993 46.3874 7.06803 44.5061 7.84743C42.4367 5.26736 36.981 -0.0271533 27.0638 -0.000277631C22.5756 -0.000277631 18.9205 1.39726 16.5017 4.0042C14.5129 6.20801 13.411 9.29871 13.411 12.6851C13.411 12.7388 13.411 12.8194 13.411 12.9001C12.6853 12.6044 11.8791 12.4432 10.9922 12.4432C8.30459 12.4432 5.21388 17.0389 3.9776 19.0277C2.79507 20.9628 0 26.0692 0 30.9337C0 39.5608 4.05823 44.1296 7.01456 47.4622C7.17581 47.6503 7.31019 47.8116 7.47144 47.9997Z"
      fill="white" />
  </g>
  <defs>
    <clipPath id="petco-pet-logo-light">
      <rect width="96.3494" height="48" fill="white" />
    </clipPath>
  </defs>
</svg>
