<svg width="149" height="56" viewBox="0 0 149 56" fill="none" role="img" xmlns="http://www.w3.org/2000/svg">
  <title>Petco Pay Card logo 2</title>
  <g clip-path="url(#clip098uadsjnv)">
    <path
      d="M121.549 11.0057C121.144 11.0057 120.821 11.3294 120.821 11.7341C120.821 12.1387 121.144 12.4624 121.549 12.4624C121.954 12.4624 122.277 12.1387 122.277 11.7341C122.277 11.3294 121.954 11.0057 121.549 11.0057ZM121.549 12.3005C121.306 12.3005 120.983 12.0578 120.983 11.7341C120.983 11.4104 121.225 11.1676 121.549 11.1676C121.873 11.1676 122.116 11.4104 122.116 11.7341C122.116 12.0578 121.873 12.3005 121.549 12.3005Z"
      fill="#001952" />
    <path
      d="M121.63 11.3295H121.306V12.1387H121.468L121.549 11.815L121.711 12.1387H121.873L121.711 11.815C121.792 11.7341 121.873 11.6532 121.873 11.5722C121.873 11.4104 121.792 11.3295 121.63 11.3295ZM121.63 11.6532L121.549 11.4913H121.63C121.711 11.4913 121.792 11.4913 121.792 11.5722C121.792 11.5722 121.711 11.6532 121.63 11.6532Z"
      fill="#001952" />
    <path
      d="M106.902 12.5434C108.682 12.5434 109.977 11.6532 110.705 10.6012C111.11 10.1156 111.272 9.54913 111.353 8.90173H109.006C108.682 9.54913 108.035 10.1965 106.902 10.1965C105.607 10.1965 104.474 9.22543 104.474 7.52601C104.474 5.82659 105.526 4.85549 106.821 4.85549C107.954 4.85549 108.52 5.50289 108.925 6.23121L109.006 6.47399H110.22H111.353C111.272 6.06936 111.191 5.66474 111.191 5.66474C110.867 4.12716 109.41 2.50867 106.821 2.50867C104.069 2.50867 101.965 4.61271 101.965 7.52601C101.965 10.4393 104.15 12.5434 106.902 12.5434Z"
      fill="#001952" />
    <path
      d="M116.855 12.5434C119.688 12.5434 121.792 10.4393 121.792 7.52601C121.792 4.61271 119.688 2.50867 116.855 2.50867C114.023 2.50867 111.919 4.61271 111.919 7.52601C111.919 10.4393 114.023 12.5434 116.855 12.5434ZM116.936 4.85549C118.15 4.85549 119.283 5.74566 119.283 7.52601C119.283 9.30636 118.15 10.1965 116.936 10.1965C115.722 10.1965 114.589 9.30636 114.589 7.52601C114.589 5.74566 115.722 4.85549 116.936 4.85549Z"
      fill="#001952" />
    <path
      d="M77.6068 14.5665V11.3295C78.0924 11.9769 78.9825 12.4624 80.3583 12.4624C83.0288 12.4624 84.8091 10.3584 84.8091 7.52602C84.8091 4.77458 83.1906 2.67053 80.4392 2.67053C78.9825 2.67053 77.9305 3.31793 77.5259 4.04625V2.91331H75.0981V15.9422L76.312 15.8613C77.0403 15.8613 77.6068 15.2948 77.6068 14.5665ZM79.9536 4.93643C81.2484 4.93643 82.3005 5.90753 82.3005 7.60695C82.3005 9.30637 81.2484 10.2775 79.9536 10.2775C78.6588 10.2775 77.6068 9.30637 77.6068 7.60695C77.6068 5.90753 78.6588 4.93643 79.9536 4.93643Z"
      fill="#001952" />
    <path
      d="M90.3931 12.5434C92.7399 12.5434 94.1966 11.1676 94.6821 9.54914H92.1734C91.8497 10.0347 91.2833 10.3584 90.3931 10.3584C89.1792 10.3584 88.1272 9.46821 88.0463 8.25434H94.763C94.763 8.17341 94.763 7.76879 94.763 7.44509C94.763 4.45087 93.0636 2.5896 90.1503 2.5896C87.7226 2.5896 85.5376 4.5318 85.5376 7.52602C85.5376 10.6821 87.8035 12.5434 90.3931 12.5434ZM90.2312 4.61272C91.6879 4.61272 92.3353 5.50289 92.3353 6.47399H88.1272C88.2081 5.58382 88.9364 4.61272 90.2312 4.61272Z"
      fill="#001952" />
    <path
      d="M101.48 10.0347C101.318 10.1156 100.994 10.1156 100.671 10.1156C99.9423 10.1156 99.5377 9.87284 99.5377 9.06359V5.09827H101.399V2.83238H99.5377V0.0809326H97.2718V1.37573C97.2718 2.18498 96.7862 2.83238 95.8151 2.83238H95.3296V5.09827H97.029V9.46822C97.029 11.3295 98.162 12.3815 100.023 12.3815C100.832 12.3815 101.237 12.2197 101.48 12.1387V10.0347Z"
      fill="#001952" />
    <path
      d="M121.711 30.5087C121.711 25.7341 118.879 21.526 111.514 21.526C105.607 21.526 101.804 25.2485 101.399 29.3757L106.659 30.5896C106.902 28.1618 108.601 26.2196 111.595 26.2196C114.751 26.2196 116.127 27.8381 116.127 29.8613C116.127 30.6705 115.723 31.3988 114.347 31.5607L108.197 32.5318C104.069 33.0983 100.913 35.526 100.913 39.7341C100.913 43.5376 104.069 47.0173 109.087 47.0173C112.971 47.0173 115.318 45.0751 116.451 43.2139C116.451 45.1561 116.613 46.1272 116.694 46.289H122.035C121.954 45.9653 121.711 44.5896 121.711 42.4046V30.5087ZM116.127 36.3352C116.127 41.0289 113.376 42.5665 110.139 42.5665C107.873 42.5665 106.659 41.1098 106.659 39.4913C106.659 37.5491 108.116 36.578 109.896 36.2543L116.127 35.2832V36.3352Z"
      fill="#001952" />
    <path
      d="M142.104 22.2544L135.63 37.4683L128.751 22.2544H122.277L132.555 43.4567L126.809 56.0001H132.878L148.173 22.2544H142.104Z"
      fill="#001952" />
    <path
      d="M88.8554 21.6878C84.8901 21.526 81.8149 23.3063 80.601 25.4913V22.2543H75.0981V55.6763H78.4161C79.6299 55.6763 80.682 54.7052 80.682 53.4104V43.4566C81.8958 45.3179 84.4854 46.7745 87.9652 46.7745C95.8149 46.7745 100.428 39.815 99.0519 31.237C98.2427 26.0578 94.1155 21.9306 88.8554 21.6878ZM87.1559 41.7572C83.4334 41.7572 80.682 38.8439 80.682 34.2312C80.682 29.7803 83.4334 26.7861 87.1559 26.7861C91.0403 26.7861 93.6299 29.7803 93.6299 34.2312C93.6299 38.763 90.9594 41.7572 87.1559 41.7572Z"
      fill="#001952" />
    <path
      d="M13.6764 20.0693H8.49721C7.20241 20.0693 6.15039 21.1214 6.15039 22.4162V26.1387C6.15039 27.4335 7.20241 28.4855 8.49721 28.4855H13.6764C14.9712 28.4855 16.0232 27.4335 16.0232 26.1387V22.4162C16.0232 21.1214 14.9712 20.0693 13.6764 20.0693ZM15.133 26.1387C15.133 26.9479 14.4857 27.5953 13.6764 27.5953H8.49721C7.68796 27.5953 7.04056 26.9479 7.04056 26.1387V22.4162C7.04056 21.6069 7.68796 20.9595 8.49721 20.9595H13.6764C14.4857 20.9595 15.133 21.6069 15.133 22.4162V26.1387Z"
      fill="#001952" />
    <path
      d="M41.2716 28.4046C41.8973 28.4046 42.4046 27.8973 42.4046 27.2716C42.4046 26.6459 41.8973 26.1387 41.2716 26.1387C40.6459 26.1387 40.1387 26.6459 40.1387 27.2716C40.1387 27.8973 40.6459 28.4046 41.2716 28.4046Z"
      fill="#001952" />
    <path
      d="M47.341 28.4046C47.9667 28.4046 48.4739 27.8973 48.4739 27.2716C48.4739 26.6459 47.9667 26.1387 47.341 26.1387C46.7152 26.1387 46.208 26.6459 46.208 27.2716C46.208 27.8973 46.7152 28.4046 47.341 28.4046Z"
      fill="#001952" />
    <path
      d="M27.5955 27.2716C27.5955 26.6242 27.1099 26.1387 26.4625 26.1387C25.8151 26.1387 25.3296 26.6242 25.3296 27.2716C25.3296 27.919 25.8151 28.4046 26.4625 28.4046C27.029 28.4046 27.5955 27.919 27.5955 27.2716Z"
      fill="#001952" />
    <path
      d="M32.5319 26.1387C31.8845 26.1387 31.3989 26.6242 31.3989 27.2716C31.3989 27.919 31.8845 28.4046 32.5319 28.4046C33.1793 28.4046 33.6648 27.919 33.6648 27.2716C33.6648 26.6242 33.1793 26.1387 32.5319 26.1387Z"
      fill="#001952" />
    <path
      d="M32.4509 30.3468C32.2081 30.3468 31.9654 30.5895 31.9654 30.8323C31.9654 31.0751 31.8844 31.3988 31.6417 31.5606C31.4798 31.7225 31.1561 31.8843 30.9133 31.8843C30.3469 31.8843 29.8613 31.3988 29.8613 30.8323V30.4277V30.3468C30.4278 30.1849 30.9133 29.6184 30.9133 28.8901C30.9133 28.8901 30.2659 28.5664 29.4567 28.5664C28.5665 28.5664 27.9191 28.8901 27.9191 28.8901C27.9191 29.5375 28.3237 30.104 28.9711 30.3468V30.4277V30.8323C28.9711 31.3988 28.4856 31.8843 27.9191 31.8843C27.6763 31.8843 27.3526 31.8034 27.1908 31.5606C27.0289 31.3988 26.8671 31.0751 26.8671 30.8323C26.8671 30.5895 26.6243 30.3468 26.3815 30.3468C26.1388 30.3468 25.896 30.5895 25.896 30.8323C25.896 31.3179 26.1388 31.8843 26.4625 32.208C26.8671 32.6126 27.3526 32.7745 27.8382 32.7745C28.4047 32.7745 28.9711 32.5317 29.3758 32.0462C29.6995 32.4508 30.2659 32.7745 30.8324 32.7745C31.3989 32.7745 31.8844 32.5317 32.2081 32.208C32.7746 31.8843 32.9365 31.3988 32.9365 30.8323C32.9365 30.5895 32.6937 30.3468 32.4509 30.3468Z"
      fill="#001952" />
    <path
      d="M54.7861 3.80347H4.12717C1.86127 3.80347 0 5.66474 0 7.93063V43.3757C0 45.6416 1.86127 47.5029 4.12717 47.5029H54.7861C57.052 47.5029 58.9133 45.6416 58.9133 43.3757V7.93063C58.8324 5.66474 57.052 3.80347 54.7861 3.80347ZM17.8035 43.9422V45.7225H4.12717C2.67052 45.8844 1.53757 44.7514 1.53757 43.3757V7.93063C1.53757 6.55491 2.67052 5.42196 4.04624 5.42196H54.7052C56.0809 5.42196 57.2139 6.55491 57.2139 7.93063V13.2717C57.052 13.2717 56.8092 13.2717 56.6474 13.2717C52.1965 13.2717 49.7688 15.6185 48.8786 16.7514C48.0694 16.4277 46.4509 15.9422 44.2659 15.9422C42.0809 15.9422 40.4624 16.4277 39.6532 16.7514C38.763 15.6185 36.2543 13.1908 31.8844 13.2717C29.8613 13.2717 28.2428 13.9191 27.1098 15.052C26.2197 16.0231 25.7341 17.3988 25.7341 18.9364V19.0173C25.4104 18.8555 25.0867 18.7746 24.6821 18.7746C23.4682 18.7746 22.0925 20.7977 21.526 21.6879C20.9595 22.578 19.7457 24.8439 19.7457 27.0289C19.7457 30.9133 21.526 32.9364 22.9017 34.3931C23.6301 35.2832 24.2775 35.9306 24.2775 36.659C24.2775 37.0636 23.2254 37.6301 22.3353 38.1965C20.3931 39.2486 17.8035 40.7861 17.8035 43.9422ZM34.2312 30.104H34.3121L36.8208 29.6185C36.8208 29.6185 36.8208 29.6994 36.7399 29.7803L36.1734 30.9942L34.3121 30.6705C34.0694 30.5896 33.8266 30.7514 33.7457 31.0751C33.6647 31.3179 33.8266 31.5607 34.1503 31.6416L35.7688 31.9653C35.526 32.6127 35.2023 33.5838 35.2023 34.6358C35.2023 35.526 35.6069 36.2543 35.9306 36.9827C36.4162 37.8728 36.9017 38.8439 36.9017 40.5434C37.0636 41.4335 36.4971 43.2948 36.0116 44.9942C35.9306 45.3179 35.8497 45.5607 35.7688 45.8844H19.422V44.104C19.422 41.8382 21.2832 40.7861 23.1445 39.7341C24.6012 38.9249 25.896 38.1965 25.896 36.8208C25.896 35.526 25.0058 34.474 24.1156 33.5029C23.711 33.0173 23.3064 32.5318 22.9017 32.0462L24.763 31.6416C25.0058 31.5607 25.1676 31.3179 25.1676 31.0751C25.0867 30.8324 24.8439 30.6705 24.6012 30.6705L22.4162 31.0751C22.1734 30.6705 21.9306 30.185 21.7688 29.6185L24.6012 30.0231H24.6821C24.9249 30.0231 25.0867 29.8613 25.1676 29.6185C25.1676 29.3757 25.0058 29.1329 24.763 29.052L21.526 28.5665C21.4451 28.0809 21.3642 27.5954 21.3642 27.0289C21.3642 24.3584 23.9538 20.7168 24.763 20.3931C25.4913 20.474 26.6243 22.3353 27.2717 23.9538L27.5145 24.6821L28.2428 24.4393C28.9711 24.1965 29.6994 24.1965 30.3468 24.4393L31.0751 24.6821L31.3179 23.9538C31.9653 22.3353 33.1792 20.474 33.8266 20.3931C34.6358 20.7977 37.2254 24.3584 37.2254 27.0289C37.2254 27.5145 37.1445 28.0809 37.0636 28.5665L34.1503 29.1329C33.9075 29.2139 33.7457 29.4566 33.7457 29.6994C33.8266 29.9422 33.9884 30.104 34.2312 30.104ZM57.4566 43.3757C57.2948 44.7514 56.1618 45.8844 54.7861 45.8844H37.4682C37.5491 45.7225 37.5491 45.5607 37.6301 45.4798C38.1965 43.5376 38.763 41.6763 38.763 40.6243C38.763 39.815 38.6821 39.1676 38.5202 38.6012C39.0867 38.8439 39.7341 39.0058 40.3815 39.0058C40.7052 39.0058 41.1098 38.9249 41.4335 38.9249C41.7572 39.9769 42.6474 41.1098 44.4277 41.1098C46.2081 41.1098 47.0983 39.9769 47.422 38.9249C47.7457 39.0058 48.1503 39.0058 48.474 39.0058C50.0116 39.0058 51.3873 38.1965 52.2775 37.0636C53.0867 39.0058 54.8671 39.896 56.5665 40.7052C56.8902 40.8671 57.1329 41.0289 57.4566 41.1098V43.3757ZM42.7283 38.2775L43.052 38.1156C43.6185 37.711 44.0231 37.2254 44.4277 36.659C44.7514 37.2254 45.237 37.711 45.7225 38.1156L45.9653 38.2775C45.8035 39.5723 44.5087 39.5723 44.3468 39.5723C44.104 39.5723 42.8902 39.4913 42.7283 38.2775ZM51.7919 29.7803C51.4682 28.8902 51.3064 28 51.3064 27.1098C51.3064 26.2197 51.6301 25.0867 52.1965 23.8728C53.0058 22.0925 54.3006 20.5549 54.7861 20.5549C55.2717 20.5549 55.5145 20.9595 56.0809 21.8497C56.4046 22.4162 56.7283 23.0636 57.2948 23.5491V39.2486C57.2139 39.2486 57.2139 39.1676 57.1329 39.1676C55.0289 38.1156 53.3295 37.3064 53.3295 34.6358C53.3295 32.8555 52.6012 31.4798 52.4393 31.1561L51.7919 29.7803ZM57.4566 20.7977H57.2948C56.7283 19.9075 56.0809 18.9364 54.7861 18.9364C52.6012 18.9364 50.8208 22.9017 50.659 23.2254C50.1734 24.1965 49.6069 25.6532 49.6069 27.1098C49.6069 28.2428 49.7688 29.3757 50.1734 30.4277L50.9017 31.9653C50.9017 31.9653 51.6301 33.1792 51.6301 34.6358C51.4682 36.3353 50.0116 37.6301 48.3121 37.6301C46.4509 37.6301 44.9942 36.0925 44.9942 34.2312V33.0173C46.289 32.6936 47.2601 31.5607 47.2601 30.185C47.2601 30.185 46.0462 29.6185 44.3468 29.6185C42.6474 29.6185 41.4335 30.185 41.4335 30.185C41.4335 31.5607 42.4046 32.6936 43.6994 33.0173V34.2312C43.6994 36.0925 42.1618 37.5491 40.3815 37.5491C38.6821 37.5491 37.2254 36.2543 37.0636 34.5549C37.0636 33.0983 37.711 31.9653 37.711 31.9653L38.4393 30.4277V30.3468C38.8439 29.2948 39.0058 28.1619 39.0058 27.0289C39.0058 24.8439 37.711 22.578 37.2254 21.6879C36.659 20.7977 35.2832 18.7746 34.0694 18.7746H33.9075C32.5318 18.7746 31.8844 19.8266 31.3179 20.7977C31.0751 21.1214 30.8324 21.526 30.6705 21.8497C30.3468 22.3353 29.9422 22.659 29.4566 22.659C28.5665 22.659 27.4335 20.9595 27.4335 18.9364C27.4335 18.1272 27.5954 16.9942 28.4046 16.185C29.2139 15.3757 30.3468 14.8902 31.9653 14.8902C36.7399 14.8902 38.6821 18.0462 38.763 18.2081L39.1676 18.8555L39.896 18.4509C39.896 18.4509 41.5954 17.4798 44.4277 17.4798C47.2601 17.4798 48.9595 18.3699 48.9595 18.3699L49.6879 18.7746L50.0925 18.1272C50.0925 18.1272 52.1156 14.8092 56.8902 14.8092C57.052 14.8092 57.2948 14.8092 57.4566 14.8092V20.7977Z"
      fill="#001952" />
  </g>

  <defs>
    <clipPath id="clip098uadsjnv">
      <rect width="148.173" height="56" fill="white" />
    </clipPath>
  </defs>
</svg>
