<svg width="129" height="44" viewBox="0 0 129 44" fill="white" xmlns="http://www.w3.org/2000/svg">
  <title>Petco Logo 3</title>
  <g clipPath="url(#petco-text-logo)">
    <path
      d="M65.3781 25.4594V13.4099H70.742V7.92933H65.3781V0H59.7809V3.88693C59.7809 6.18021 58.5371 7.92933 55.7774 7.92933H54.4558V13.4099H59.2367V26.47C59.2367 31.3286 62.2297 34.2049 67.0106 34.2049C69.265 34.2049 70.4311 33.7774 70.7809 33.6219V28.4912C70.5088 28.53 69.4982 28.6855 68.6431 28.6855C66.3887 28.7244 65.3781 27.7527 65.3781 25.4594Z" />
    <path
      d="M14.2261 7.34628C10.2226 7.34628 7.22968 9.21201 5.98587 11.4664V7.96819H0V44.0389H0.816254H2.13781C4.74205 44.0389 5.98587 42.4841 6.10247 40.424V30.9399C7.42403 32.9223 10.2615 34.5159 13.9929 34.5159C21.4558 34.5159 26.1979 28.6466 26.1979 20.8728C26.1979 13.2155 21.8834 7.34628 14.2261 7.34628ZM13.0601 29.0353C9.01767 29.0353 6.0636 25.8481 6.0636 20.8728C6.0636 16.0141 8.9788 12.8268 13.0601 12.8268C17.2191 12.8268 20.0565 16.0141 20.0565 20.8728C20.0177 25.8481 17.1413 29.0353 13.0601 29.0353Z" />
    <path
      d="M112.915 7.15195C105.18 7.15195 99.5053 12.9435 99.5053 20.9117C99.5053 28.9187 105.219 34.7103 112.915 34.7103C120.689 34.7103 126.403 28.9187 126.403 20.9117C126.403 12.9435 120.728 7.15195 112.915 7.15195ZM112.915 29.1519C109.145 29.1519 105.686 26.2756 105.686 20.9117C105.686 15.5477 109.145 12.7491 112.915 12.7491C116.763 12.7491 120.145 15.5088 120.145 20.9117C120.184 26.3145 116.763 29.1519 112.915 29.1519Z" />
    <path
      d="M53.5618 20.6396C53.5618 12.4382 48.8586 7.15195 40.8904 7.15195C34.3215 7.15195 28.2579 12.5936 28.2579 20.7951C28.2579 29.5795 34.477 34.7103 41.5124 34.7103C47.7314 34.7103 51.8516 31.0177 53.2509 26.5088L53.4452 25.7703H47.6537C46.682 27.8693 44.7774 29.3852 41.5124 29.3852C37.6643 29.3852 34.5936 26.5477 34.4381 22.6219H53.4063C53.4452 22.5053 53.5618 21.6502 53.5618 20.6396ZM34.5936 18.0742C34.788 15.3145 37.0424 12.3216 40.9293 12.3216C45.2049 12.3216 47.2261 15.0424 47.3039 18.0742H34.5936Z" />
    <path
      d="M97.6396 24.2544H91.9647C91.3816 26.2368 89.5159 29.0353 85.4735 29.0353C81.5866 29.0353 78.2438 26.1201 78.2438 20.8728C78.2438 15.6254 81.5866 12.8269 85.3569 12.8269C89.2827 12.8269 91.0707 15.3922 91.6537 17.6855H91.6926H91.6537H97.4452C97.6784 17.6855 97.2509 15.9364 97.1731 15.6643C97.1731 15.6254 97.1731 15.6254 97.1731 15.6254C96.0848 11.4664 92.2756 7.15195 85.318 7.15195C77.8551 7.15195 72.0636 12.9046 72.0636 20.9117C72.0636 28.8021 77.8551 34.7103 85.4735 34.7103C92.2756 34.7103 96.2014 30.2792 97.4064 26.2368C97.4064 26.1979 97.9117 24.2544 97.6396 24.2544Z" />
    <path
      d="M126.947 30.5512C128.074 30.5512 128.968 31.4841 128.968 32.5724C128.968 33.6997 128.074 34.5936 126.947 34.5936C125.82 34.5936 124.926 33.6608 124.926 32.5724C124.926 31.4841 125.82 30.5512 126.947 30.5512ZM126.947 34.205C127.841 34.205 128.502 33.5053 128.502 32.5724C128.502 31.6784 127.802 30.9399 126.947 30.9399C126.053 30.9399 125.392 31.6396 125.392 32.5724C125.353 33.5053 126.053 34.205 126.947 34.205ZM126.869 32.8834H126.714V33.6608H126.247V31.4841H127.064C127.491 31.4841 127.802 31.7951 127.802 32.1838C127.802 32.4947 127.608 32.7279 127.336 32.8445L127.802 33.6997H127.258L126.869 32.8834ZM126.986 32.4947C127.219 32.4947 127.336 32.3781 127.336 32.1838C127.336 31.9894 127.219 31.8728 126.986 31.8728H126.714V32.4947H126.986Z" />
  </g>
  <defs>
    <clipPath id="petco-text-logo">
      <rect width="128.968" height="44" />
    </clipPath>
  </defs>
</svg>
