<svg width="19" height="16" fill="none" xmlns="http://www.w3.org/2000/svg">
<title>Star golden full</title>
  <defs>
    <linearGradient id="a">
      <stop offset="0%" stop-color="#FEBD00" />
      <stop offset="100%" stop-color="#FEBD00" />
      <stop offset="100%" stop-color="#fff" />
      <stop offset="100%" stop-color="#fff" />
    </linearGradient>
  </defs>
  <path fill="url(#a)" stroke="#FEBD00" stroke-width="1"
    d="M17.3885 6.1942c-.0612-.176-.2033-.2476-.386-.2608-.2296-.0188-.4593-.0461-.689-.0715-1.5063-.1572-3.021-.32-4.5281-.4764-.1215-.0131-.1826-.0593-.2363-.1628l-1.3584-2.8195c-.2702-.5545-.5338-1.1155-.8106-1.67-.1016-.209-.2635-.2937-.4735-.2542-.176.033-.257.1563-.3238.3003-.7164 1.4808-1.4262 2.9616-2.1492 4.4424-.0273.065-.1083.1365-.1695.1431-.7502.0913-1.4996.1695-2.2433.2476a492.0157 492.0157 0 0 0-3.0689.3267c-.1685.0188-.2824.0979-.3436.2476-.0612.1628-.0141.3003.1073.4113.0941.0848.1892.1695.2918.2476C2.2162 7.883 3.4193 8.9205 4.629 9.9503c.0743.066.1148.1177.0875.2222-.2768 1.2455-.547 2.4918-.8246 3.7373-.0876.4048-.1543.7212-.256 1.1778-.0336.1253.0719.2783.1618.3557.168.1448.3511.0847.5338-.0069 1.5062-.802 3.0143-1.605 4.514-2.4137.1157-.0584.19-.0584.305 0a1046.019 1046.019 0 0 0 4.5468 2.4335c.1695.0913.3324.111.4943 0 .1619-.111.1826-.2674.1412-.45-.3512-1.5985-.7023-3.197-1.0544-4.7888-.0263-.1234 0-.1949.0951-.273.8115-.6854 1.6089-1.3773 2.4128-2.0683L17.2388 6.63c.1356-.1167.21-.2607.1497-.4367z" />
</svg>
